<svg xmlns="http://www.w3.org/2000/svg" viewBox="0 0 860 180" role="img" aria-labelledby="title desc">
  <title id="title">PhotoBIZ business document logo</title>
  <desc id="desc">Horizontal PhotoBIZ logo with a simplified camera mark for business documents.</desc>
  <defs>
    <linearGradient id="mark-bg" x1="0" y1="0" x2="1" y2="1">
      <stop offset="0" stop-color="#155eef" />
      <stop offset="1" stop-color="#0b6b78" />
    </linearGradient>
  </defs>

  <g transform="translate(28 28)">
    <rect width="124" height="124" rx="30" fill="url(#mark-bg)" />
    <path d="M34 50c0-8 6-14 14-14h18l9-9h24l9 9h2c8 0 14 6 14 14v48c0 8-6 14-14 14H48c-8 0-14-6-14-14V50Z" fill="#ffffff" />
    <circle cx="79" cy="75" r="29" fill="#17202a" />
    <circle cx="79" cy="75" r="17" fill="#155eef" />
    <circle cx="86" cy="68" r="5" fill="#ffffff" opacity="0.92" />
    <path d="M37 20l7 15 16 5-15 7-5 16-7-15-16-5 15-7 5-16Z" fill="#f8d67d" />
  </g>

  <text x="184" y="101" fill="#17202a" font-family="Segoe UI, Inter, Arial, sans-serif" font-size="66" font-weight="850">PhotoBIZ</text>
  <text x="188" y="132" fill="#5f6f85" font-family="Segoe UI, Inter, Arial, sans-serif" font-size="20" font-weight="700">Photobooth business platform</text>
</svg>
